<svg width="27" height="26" viewBox="0 0 27 26" fill="none" xmlns="http://www.w3.org/2000/svg">
<path fill-rule="evenodd" clip-rule="evenodd" d="M13.7857 14.669C13.012 14.669 12.3834 14.0405 12.3834 13.2667C12.3834 12.4953 13.012 11.8667 13.7857 11.8667C14.5594 11.8667 15.188 12.4953 15.188 13.2667C15.188 14.0405 14.5594 14.669 13.7857 14.669ZM8.33429 14.669C7.56057 14.669 6.932 14.0405 6.932 13.2668C6.932 12.4953 7.56057 11.8668 8.33429 11.8668C9.108 11.8668 9.73657 12.4953 9.73657 13.2668C9.73657 14.0405 9.108 14.669 8.33429 14.669ZM17.835 13.2667C17.835 14.0405 18.4635 14.669 19.2373 14.669C20.011 14.669 20.6395 14.0405 20.6395 13.2667C20.6395 12.4953 20.011 11.8667 19.2373 11.8667C18.4635 11.8667 17.835 12.4953 17.835 13.2667Z" fill="white"/>
<path fill-rule="evenodd" clip-rule="evenodd" d="M13.524 1C6.552 1 1.5 6.69534 1.5 13.018C1.5 15.0371 2.088 17.115 3.12 19.0138C3.312 19.3275 3.336 19.7229 3.204 20.0966L2.4 22.7887C2.22 23.4377 2.772 23.9172 3.384 23.7249L5.808 23.005C6.468 22.7887 6.984 23.0639 7.596 23.4377C9.348 24.47 11.532 25 13.5 25C19.452 25 25.5 20.3971 25.5 12.982C25.5 6.58718 20.34 1 13.524 1Z" stroke="white" stroke-width="2" stroke-linecap="round" stroke-linejoin="round"/>
</svg>
