<svg width="12" height="13" viewBox="0 0 12 13" fill="none" xmlns="http://www.w3.org/2000/svg">
<path fill-rule="evenodd" clip-rule="evenodd" d="M5 2.25H1.75V10.75H10.25V7.5C10.25 7.08579 10.5858 6.75 11 6.75C11.4142 6.75 11.75 7.08579 11.75 7.5V11C11.75 11.6904 11.1904 12.25 10.5 12.25H1.5C0.809644 12.25 0.25 11.6904 0.25 11V2C0.25 1.30964 0.809644 0.75 1.5 0.75H5C5.41421 0.75 5.75 1.08579 5.75 1.5C5.75 1.91421 5.41421 2.25 5 2.25ZM8 0.75H11C11.1017 0.75 11.1987 0.770239 11.2871 0.806909C11.3755 0.843509 11.4584 0.897763 11.5303 0.96967C11.6768 1.11612 11.75 1.30806 11.75 1.5V4.5C11.75 4.91421 11.4142 5.25 11 5.25C10.5858 5.25 10.25 4.91421 10.25 4.5V3.31066L5.53033 8.03033C5.23744 8.32322 4.76256 8.32322 4.46967 8.03033C4.17678 7.73744 4.17678 7.26256 4.46967 6.96967L9.18934 2.25H8C7.58579 2.25 7.25 1.91421 7.25 1.5C7.25 1.08579 7.58579 0.75 8 0.75Z" fill="white"/>
</svg>
