<svg width="24" height="26" viewBox="0 0 24 26" fill="none" xmlns="http://www.w3.org/2000/svg">
<path fill-rule="evenodd" clip-rule="evenodd" d="M22.3616 7.88144L21.6147 6.58533C20.9828 5.48863 19.5824 5.11029 18.4842 5.73957V5.73957C17.9615 6.04752 17.3377 6.13489 16.7504 5.98241C16.1632 5.82993 15.6607 5.45013 15.3538 4.92675C15.1563 4.59408 15.0502 4.21518 15.0462 3.82835V3.82835C15.064 3.20817 14.8301 2.60719 14.3976 2.16231C13.9651 1.71743 13.371 1.46654 12.7506 1.4668H11.2458C10.6379 1.46679 10.0551 1.709 9.62637 2.13984C9.1976 2.57068 8.95818 3.15462 8.9611 3.76245V3.76245C8.94309 5.01742 7.92055 6.02528 6.66545 6.02515C6.27863 6.02113 5.89972 5.91504 5.56705 5.7176V5.7176C4.46885 5.08832 3.06851 5.46666 2.43662 6.56336L1.63479 7.88144C1.00367 8.97678 1.37685 10.3762 2.46957 11.0119V11.0119C3.17986 11.422 3.61741 12.1798 3.61741 13C3.61741 13.8201 3.17986 14.578 2.46957 14.9881V14.9881C1.37824 15.6194 1.00465 17.0155 1.63479 18.1075V18.1075L2.39268 19.4146C2.68875 19.9488 3.1855 20.3431 3.773 20.51C4.36051 20.677 4.99034 20.603 5.52312 20.3043V20.3043C6.04687 19.9987 6.671 19.915 7.25678 20.0717C7.84256 20.2285 8.34146 20.6128 8.64257 21.1391C8.84001 21.4718 8.9461 21.8507 8.95012 22.2375V22.2375C8.95012 23.5054 9.97792 24.5332 11.2458 24.5332H12.7506C14.0142 24.5332 15.0402 23.5121 15.0462 22.2485V22.2485C15.0433 21.6387 15.2842 21.0531 15.7154 20.622C16.1465 20.1908 16.7321 19.9499 17.3419 19.9528C17.7278 19.9632 18.1051 20.0688 18.4403 20.2604V20.2604C19.5356 20.8915 20.9351 20.5183 21.5707 19.4256V19.4256L22.3616 18.1075C22.6677 17.5821 22.7517 16.9563 22.595 16.3688C22.4383 15.7812 22.0539 15.2803 21.5268 14.9771V14.9771C20.9997 14.6739 20.6152 14.173 20.4585 13.5854C20.3019 12.9979 20.3859 12.3721 20.692 11.8467C20.8911 11.4991 21.1792 11.2109 21.5268 11.0119V11.0119C22.6129 10.3766 22.9853 8.9853 22.3616 7.89243V7.89243V7.88144Z" stroke="white" stroke-width="2" stroke-linecap="round" stroke-linejoin="round"/>
<circle cx="12.0037" cy="13.0001" r="3.16339" stroke="white" stroke-width="2" stroke-linecap="round" stroke-linejoin="round"/>
</svg>
