<svg width="20" height="18" viewBox="0 0 20 18" fill="none" xmlns="http://www.w3.org/2000/svg">
<path fill-rule="evenodd" clip-rule="evenodd" d="M5.54618 0.277931C5.71236 0.397892 5.98037 0.673447 5.98037 0.673447C7.02079 1.64858 8.58785 4.07394 9.09109 5.30444C9.10163 5.30444 9.40006 6.03608 9.41177 6.38409V6.43041C9.41177 6.96371 9.11333 7.46255 8.6335 7.71792C8.43569 7.8232 7.95456 7.92111 7.72244 7.96835C7.64556 7.98399 7.59599 7.99408 7.59308 7.99704C6.90727 8.10156 5.85514 8.17045 4.70003 8.17045C3.48757 8.17045 2.38981 8.10156 1.71453 7.97328C1.70282 7.97328 1.08606 7.84619 0.880085 7.76424C0.582823 7.63715 0.331202 7.40436 0.170868 7.11455C0.0561757 6.88294 0 6.63827 0 6.38409C0.0105329 6.11685 0.182571 5.618 0.262153 5.42083C0.765393 4.12026 2.41204 1.6367 3.41852 0.685325C3.52307 0.579218 3.64206 0.468061 3.72485 0.390714C3.76902 0.349445 3.8029 0.317802 3.81877 0.301685C4.07039 0.104521 4.37936 0 4.71173 0C5.00783 0 5.30509 0.0926435 5.54618 0.277931ZM16.2286 7.16178C16.2286 7.68558 15.8108 8.10962 15.2947 8.10962C14.7786 8.10962 14.3608 7.68558 14.3608 7.16178L14.1033 2.58295C14.1033 1.91543 14.637 1.375 15.2947 1.375C15.9524 1.375 16.4849 1.91543 16.4849 2.58295L16.2286 7.16178ZM19.1199 10.2356C19.4172 10.3639 19.6688 10.5955 19.8291 10.8853C19.9438 11.1169 20 11.3616 20 11.617C19.9895 11.883 19.8174 12.3831 19.7367 12.5802C19.2346 13.8797 17.5868 16.3633 16.5815 17.3158C16.4787 17.4194 16.3619 17.5284 16.2793 17.6055L16.2792 17.6055C16.2331 17.6486 16.1976 17.6817 16.1812 17.6983C15.9284 17.8955 15.6206 18 15.2894 18C14.991 18 14.6937 17.9074 14.4538 17.7209C14.2876 17.6021 14.0196 17.3265 14.0196 17.3265C12.978 16.3526 11.4121 13.926 10.9089 12.6954C10.8972 12.6954 10.5999 11.965 10.5882 11.617V11.5706C10.5882 11.0361 10.8855 10.5373 11.3665 10.2819C11.5639 10.1777 12.0435 10.0796 12.2762 10.0319L12.2762 10.0319C12.3539 10.016 12.404 10.0058 12.4069 10.0028C13.0927 9.89827 14.1449 9.82938 15.3 9.82938C16.5124 9.82938 17.6102 9.89827 18.2855 10.0265C18.296 10.0265 18.9139 10.1536 19.1199 10.2356ZM4.70553 9.89053C4.18942 9.89053 3.77161 10.3146 3.77161 10.8383L3.51414 15.4171C3.51414 16.0846 4.04781 16.625 4.70553 16.625C5.36325 16.625 5.89575 16.0846 5.89575 15.4171L5.63945 10.8383C5.63945 10.3146 5.22165 9.89053 4.70553 9.89053Z" fill="#1C1E23"/>
</svg>
